<?xml version="1.0" standalone="no"?>
<!DOCTYPE svg PUBLIC "-//W3C//DTD SVG 20010904//EN"
 "http://www.w3.org/TR/2001/REC-SVG-20010904/DTD/svg10.dtd">
<svg version="1.0" xmlns="http://www.w3.org/2000/svg"
 width="206.000000pt" height="206.000000pt" viewBox="0 0 206.000000 206.000000"
 preserveAspectRatio="xMidYMid meet">

<g transform="translate(0.000000,206.000000) scale(0.100000,-0.100000)"
fill="#000000" stroke="none">
<path d="M905 2049 c-706 -88 -1111 -855 -785 -1488 219 -426 705 -642 1174
-521 100 25 263 103 342 163 72 55 197 183 243 251 128 185 194 448 171 676
-50 484 -420 859 -905 919 -101 12 -139 12 -240 0z m268 -144 c193 -34 343
-112 482 -250 179 -179 259 -375 258 -630 -1 -159 -21 -246 -92 -390 -88 -178
-218 -308 -396 -396 -144 -71 -231 -91 -390 -92 -255 -1 -451 79 -630 258
-244 245 -323 580 -214 910 42 127 108 233 209 335 208 211 491 304 773 255z"/>
<path d="M459 1321 l-29 -29 0 -247 c0 -215 2 -251 17 -276 16 -26 66 -59 92
-59 7 0 11 69 13 212 l3 213 165 -213 c90 -116 170 -212 178 -212 7 0 24 11
37 25 l25 24 0 296 c0 320 2 309 -54 283 -53 -23 -61 -50 -66 -221 l-5 -157
-154 195 c-103 130 -161 195 -174 195 -10 0 -32 -13 -48 -29z"/>
<path d="M1114 1332 c-49 -31 -55 -58 -52 -248 l3 -172 34 12 c63 21 76 51 79
193 l4 126 96 -5 c102 -5 140 -18 179 -60 79 -85 68 -245 -23 -314 -36 -28
-41 -29 -185 -34 -166 -6 -179 -11 -197 -81 l-10 -41 181 4 c176 3 184 4 239
31 64 32 111 80 142 146 31 68 30 216 -2 286 -29 63 -73 110 -137 143 -46 24
-62 27 -185 30 -120 3 -139 1 -166 -16z"/>
</g>
</svg>
